<svg xmlns="http://www.w3.org/2000/svg" width="1024" height="1024" viewBox="0 0 1024 1024">
  <defs>
    <linearGradient id="bg" x1="96" y1="64" x2="928" y2="960" gradientUnits="userSpaceOnUse">
      <stop stop-color="#275DFF"/>
      <stop offset="1" stop-color="#50A8FF"/>
    </linearGradient>
    <filter id="shadow" x="-20%" y="-20%" width="140%" height="150%">
      <feDropShadow dx="0" dy="28" stdDeviation="24" flood-color="#0B2D81" flood-opacity="0.28"/>
    </filter>
  </defs>
  <rect width="1024" height="1024" fill="url(#bg)"/>
  <g filter="url(#shadow)" fill="#FFFFFF">
    <rect x="150" y="150" width="320" height="320" rx="92"/>
    <rect x="554" y="150" width="320" height="320" rx="92" opacity="0.92"/>
    <rect x="150" y="554" width="320" height="320" rx="92" opacity="0.92"/>
    <rect x="554" y="554" width="320" height="320" rx="92"/>
  </g>
  <circle cx="214" cy="214" r="24" fill="#29BF78"/>
  <circle cx="618" cy="214" r="24" fill="#FFAA32"/>
  <circle cx="214" cy="618" r="24" fill="#B2BAC7"/>
  <circle cx="618" cy="618" r="24" fill="#FF4455"/>
  <path d="M268 302h84l-46 55 46 55h-84l-46-55 46-55Z" fill="#11131A"/>
  <path d="M672 316h84M714 274v84" stroke="#11131A" stroke-width="34" stroke-linecap="round"/>
  <path d="M254 714h112" stroke="#11131A" stroke-width="34" stroke-linecap="round"/>
  <path d="m658 714 42 42 82-94" fill="none" stroke="#11131A" stroke-width="34" stroke-linecap="round" stroke-linejoin="round"/>
</svg>
